<svg 
 xmlns="http://www.w3.org/2000/svg"
 xmlns:xlink="http://www.w3.org/1999/xlink"
 width="40px" height="61px">
<path fill-rule="evenodd"  fill="rgb(255, 255, 255)"
 d="M33.117,32.261 C33.117,33.182 32.368,33.931 31.448,33.931 C30.853,33.931 30.331,33.616 30.035,33.146 L27.925,33.146 C27.437,33.146 27.041,32.750 27.041,32.261 C27.041,31.773 27.437,31.377 27.925,31.377 L30.035,31.377 C30.331,30.907 30.853,30.592 31.448,30.592 C32.368,30.592 33.117,31.341 33.117,32.261 ZM10.372,34.317 L29.904,34.317 C30.392,34.317 30.788,34.713 30.788,35.201 L30.788,54.819 C30.788,55.308 30.392,55.704 29.904,55.704 L10.372,55.704 C9.883,55.704 9.487,55.307 9.487,54.819 L9.487,35.201 C9.487,34.713 9.883,34.317 10.372,34.317 ZM11.256,53.935 L29.019,53.935 L29.019,36.085 L11.256,36.085 L11.256,53.935 ZM10.372,18.211 C9.883,18.211 9.487,17.815 9.487,17.327 L9.487,9.704 C9.487,9.215 9.883,8.819 10.372,8.819 L29.904,8.819 C30.392,8.819 30.788,9.215 30.788,9.704 L30.788,29.321 C30.788,29.810 30.392,30.205 29.904,30.205 L10.372,30.205 C9.883,30.205 9.487,29.810 9.487,29.321 L9.487,20.863 C9.487,20.374 9.883,19.979 10.372,19.979 C10.860,19.979 11.256,20.374 11.256,20.863 L11.256,28.437 L29.019,28.437 L29.019,10.588 L11.256,10.588 L11.256,17.327 C11.256,17.815 10.860,18.211 10.372,18.211 ZM38.580,60.499 L1.695,60.499 C1.207,60.499 0.811,60.104 0.811,59.615 L0.811,38.737 C0.811,38.249 1.207,37.854 1.695,37.854 C2.184,37.854 2.579,38.250 2.579,38.737 L2.579,58.731 L4.575,58.731 L4.575,4.907 C4.575,4.419 4.971,4.024 5.459,4.024 L34.816,4.024 C35.305,4.024 35.701,4.420 35.701,4.907 L35.701,43.242 C35.701,43.730 35.305,44.126 34.816,44.126 C34.328,44.126 33.932,43.730 33.932,43.242 L33.932,5.792 L6.343,5.792 L6.343,58.731 L33.932,58.731 L33.932,46.779 C33.932,46.290 34.329,45.894 34.816,45.894 C35.305,45.894 35.701,46.290 35.701,46.779 L35.701,58.731 L37.696,58.731 L37.696,2.028 L2.579,2.028 L2.579,35.201 C2.579,35.689 2.184,36.085 1.695,36.085 C1.207,36.085 0.811,35.689 0.811,35.201 L0.811,1.144 C0.811,0.656 1.207,0.260 1.695,0.260 L38.580,0.260 C39.069,0.260 39.464,0.656 39.464,1.144 L39.464,59.615 C39.464,60.104 39.068,60.499 38.580,60.499 Z"/>
</svg>
