<svg xmlns="http://www.w3.org/2000/svg" width="53.969" height="53.94" viewBox="0 0 53.969 53.94">
  <defs>
    <style>
      .cls-1 {
        fill: #fff;
        fill-rule: evenodd;
      }
    </style>
  </defs>
  <path id="Фигура_7" data-name="Фигура 7" class="cls-1" d="M798.725,2381.58h3.161v3.16h-3.161v-3.16Zm6.323,0h3.161v3.16h-3.161v-3.16Zm-6.323,6.78h3.161v3.16h-3.161v-3.16Zm6.323,0h3.161v3.16h-3.161v-3.16Zm-6.323,6.79h3.161v3.16h-3.161v-3.16Zm6.323,0h3.161v3.16h-3.161v-3.16Zm9.484-5.52v-15.18H792.4v8.85H775.541v22.13H829.5v-15.8H814.532Zm-22.13-3.92v4.55H777.817v-4.55H792.4Zm0,7.08v3.79H777.817v-3.79H792.4Zm-14.585,10.37v-4.55H792.4v4.55H777.817Zm34.557,0H794.686v-26.55h17.688v26.55Zm15.215,0H814.532v-11.37h13.057v11.37Zm0,0M819,2395.95h3.162v3.16H819v-3.16Zm-37.448-30.64,0.744,3.6,3.635,0.53-0.125,3.76,3.1-.64-0.97-4.68-3.634-.53-0.744-3.59-3.634-.53-0.519-2.51-3.1.64,1.614,3.43Zm0,0,38.63,6.03,0.745-3.6,3.634-.52,0.744-3.6,3.549-.49-0.454-2.12-4.73.68-0.744,3.6-3.634.53-0.744,3.59-2.539.37,0.455,2.37Zm0,0-27.213-9.25,3.5,2-0.838,2.5,1.1,1.38,1.528-4.56-2.869-2.37,1.183-3.53-2.869-2.37,0.838-2.5-3-.63-0.391,4.18,2.87,2Zm0.632-.37,15.181,6.39,3.707-3.06-1.184-3.53,2.87-2.38-1.184-3.53,2.033-1.68-2.014-2.43-2.442,3.06,0.8,3.53-2.616,2.37,1.183,3.53-2.033,1.68Zm0,0" transform="translate(-775.531 -2351.5)"/>
</svg>
