<svg 
 xmlns="http://www.w3.org/2000/svg"
 xmlns:xlink="http://www.w3.org/1999/xlink"
 width="51px" height="59px">
<path fill-rule="evenodd"  fill="rgb(255, 255, 255)"
 d="M48.585,24.449 C48.397,24.558 48.190,24.611 47.983,24.611 C47.834,24.611 47.687,24.585 47.545,24.529 L40.907,21.936 L37.325,24.005 L42.166,25.898 C42.787,26.141 43.092,26.839 42.849,27.457 C42.666,27.929 42.212,28.220 41.730,28.220 C41.584,28.220 41.437,28.194 41.292,28.138 L34.657,25.545 L31.942,27.112 C32.235,27.895 32.397,28.742 32.397,29.627 C32.397,30.512 32.235,31.359 31.942,32.143 L34.657,33.710 L41.292,31.116 C41.908,30.876 42.608,31.181 42.849,31.800 C43.092,32.418 42.787,33.116 42.166,33.359 L37.327,35.251 L40.908,37.319 L47.545,34.725 C47.889,34.593 48.270,34.622 48.585,34.805 C48.903,34.988 49.119,35.306 49.172,35.666 L50.329,43.281 C50.414,43.837 50.101,44.379 49.579,44.583 L42.406,47.386 C42.264,47.441 42.115,47.468 41.968,47.468 C41.759,47.468 41.552,47.415 41.367,47.306 C41.049,47.124 40.833,46.806 40.780,46.445 L39.707,39.405 L36.122,37.334 L36.904,42.478 C37.005,43.135 36.553,43.748 35.896,43.847 C35.835,43.854 35.773,43.859 35.713,43.859 C35.131,43.859 34.616,43.433 34.527,42.836 L33.457,35.796 L30.728,34.220 C29.646,35.522 28.122,36.443 26.382,36.737 L26.382,39.875 L31.945,44.325 C32.465,44.742 32.546,45.497 32.132,46.017 C31.897,46.315 31.546,46.469 31.194,46.469 C30.929,46.469 30.665,46.383 30.444,46.207 L26.382,42.957 L26.382,47.091 L31.947,51.544 C32.231,51.775 32.397,52.118 32.397,52.485 C32.397,52.851 32.231,53.194 31.945,53.426 L25.930,58.237 C25.711,58.410 25.444,58.499 25.179,58.499 C24.914,58.499 24.648,58.410 24.429,58.237 L18.414,53.426 C18.127,53.194 17.961,52.851 17.961,52.485 C17.961,52.118 18.127,51.775 18.414,51.544 L23.976,47.093 L23.976,42.956 L19.915,46.204 C19.393,46.621 18.640,46.535 18.223,46.017 C17.810,45.497 17.891,44.742 18.411,44.325 L23.976,39.873 L23.976,36.737 C22.237,36.443 20.712,35.522 19.630,34.220 L16.901,35.796 L15.832,42.836 C15.743,43.433 15.228,43.859 14.646,43.859 C14.585,43.859 14.523,43.854 14.463,43.844 C13.806,43.743 13.354,43.132 13.455,42.475 L14.236,37.335 L10.651,39.404 L9.581,46.445 C9.529,46.806 9.312,47.124 8.994,47.306 C8.806,47.415 8.599,47.468 8.390,47.468 C8.241,47.468 8.094,47.441 7.952,47.386 L0.780,44.583 C0.256,44.379 -0.057,43.837 0.030,43.281 L1.187,35.666 C1.240,35.306 1.456,34.988 1.774,34.805 C2.094,34.622 2.474,34.593 2.813,34.725 L9.451,37.319 L13.034,35.250 L8.193,33.357 C7.572,33.114 7.266,32.416 7.510,31.798 C7.753,31.179 8.448,30.871 9.066,31.114 L15.704,33.708 L18.416,32.143 C18.123,31.359 17.961,30.512 17.961,29.627 C17.961,28.742 18.123,27.895 18.416,27.112 L15.702,25.545 L9.066,28.138 C8.922,28.194 8.775,28.220 8.629,28.220 C8.147,28.220 7.692,27.929 7.507,27.454 C7.264,26.836 7.570,26.139 8.190,25.896 L13.031,24.003 L9.452,21.936 L2.813,24.529 C2.673,24.585 2.524,24.611 2.375,24.611 C2.166,24.611 1.959,24.558 1.774,24.449 C1.459,24.267 1.242,23.952 1.187,23.588 L0.030,15.973 C-0.055,15.417 0.258,14.879 0.780,14.671 L7.952,11.868 C8.294,11.736 8.674,11.765 8.992,11.948 C9.309,12.131 9.525,12.446 9.581,12.809 L10.653,19.851 L14.235,21.919 L13.455,16.779 C13.354,16.122 13.804,15.509 14.463,15.410 C15.112,15.319 15.733,15.759 15.832,16.418 L16.902,23.459 L19.630,25.034 C20.712,23.733 22.237,22.812 23.976,22.518 L23.976,19.380 L18.414,14.929 C17.894,14.513 17.812,13.757 18.226,13.238 C18.644,12.720 19.397,12.638 19.917,13.050 L23.976,16.298 L23.976,12.161 L18.414,7.711 C18.127,7.480 17.961,7.136 17.961,6.770 C17.961,6.404 18.127,6.061 18.414,5.829 L24.429,1.017 C24.871,0.666 25.489,0.666 25.932,1.017 L31.947,5.829 C32.231,6.061 32.397,6.404 32.397,6.770 C32.397,7.136 32.231,7.480 31.945,7.711 L26.382,12.161 L26.382,16.298 L30.444,13.050 C30.966,12.638 31.721,12.720 32.135,13.238 C32.549,13.757 32.467,14.513 31.947,14.929 L26.382,19.381 L26.382,22.518 C28.122,22.812 29.646,23.733 30.728,25.034 L33.457,23.459 L34.527,16.418 C34.625,15.762 35.258,15.316 35.896,15.410 C36.553,15.512 37.005,16.122 36.904,16.779 L36.122,21.920 L39.707,19.850 L40.780,12.809 C40.833,12.449 41.049,12.131 41.367,11.948 C41.685,11.765 42.067,11.736 42.406,11.868 L49.579,14.671 C50.103,14.876 50.416,15.417 50.329,15.973 L49.172,23.588 C49.119,23.949 48.903,24.267 48.585,24.449 ZM42.931,44.595 L47.806,42.689 L47.018,37.514 L42.142,39.420 L42.931,44.595 ZM3.340,37.514 L2.553,42.692 L7.428,44.598 L8.217,39.420 L3.340,37.514 ZM7.428,14.657 L2.553,16.563 L3.340,21.738 L8.217,19.835 L7.428,14.657 ZM21.091,52.485 L25.179,55.757 L29.267,52.485 L25.179,49.212 L21.091,52.485 ZM29.267,6.770 L25.179,3.498 L21.091,6.770 L25.179,10.043 L29.267,6.770 ZM25.179,24.815 C22.525,24.815 20.367,26.973 20.367,29.627 C20.367,32.281 22.525,34.439 25.179,34.439 C27.833,34.439 29.991,32.281 29.991,29.627 C29.991,26.973 27.833,24.815 25.179,24.815 ZM42.931,14.660 L42.142,19.835 L47.018,21.740 L47.806,16.565 L42.931,14.660 Z"/>
</svg>
