<svg xmlns="http://www.w3.org/2000/svg" width="60.35" height="61.94" viewBox="0 0 60.35 61.94">
  <defs>
    <style>
      .cls-1 {
        fill: #b69375;
        fill-rule: evenodd;
      }
    </style>
  </defs>
  <path id="Фигура_21" data-name="Фигура 21" class="cls-1" d="M1342.94,2775.05l-24.15-1.69v-4.33a8.578,8.578,0,0,0-8.58-8.58h-13.36a8.748,8.748,0,0,0-9.02,8.58v44.76a8.748,8.748,0,0,0,9.02,8.58h13.09a8.567,8.567,0,0,0,8.84-8.31,2.437,2.437,0,0,0,.01-0.27v-26.63l24.15-1.68A5.215,5.215,0,0,0,1342.94,2775.05Zm-27.69,38.74a5.045,5.045,0,0,1-5.03,5.05,2.528,2.528,0,0,1-.28-0.01h-13.09a5.193,5.193,0,0,1-5.48-5.04v-44.76a5.193,5.193,0,0,1,5.48-5.04h13.09a5.037,5.037,0,0,1,5.3,4.77,2.437,2.437,0,0,1,.01.27v4.07l-6.99-.44a9.39,9.39,0,0,0-4.86-1.42,9.025,9.025,0,0,0,0,18.05,9.39,9.39,0,0,0,4.86-1.42l6.99-.53v26.45Zm-12.83-28.13a5.581,5.581,0,0,1-4.51-5.4,5.479,5.479,0,0,1,4.51-5.39,7.518,7.518,0,0,0-.16,10.63Zm40.25-3.71-34.67,2.38a3.8,3.8,0,0,1-3.01-1.15,4,4,0,0,1-1.33-2.92,4.335,4.335,0,0,1,1.33-3,4.088,4.088,0,0,1,2.74-1.06H1308l34.67,2.38A1.685,1.685,0,0,1,1342.67,2781.95Zm-39.27,14.24a5.744,5.744,0,0,0-5.75,5.75v0.09a6.629,6.629,0,0,0,1.06,3.45l0.97,7.34a1.778,1.778,0,0,0,1.77,1.59h3.98a1.68,1.68,0,0,0,1.68-1.59l0.98-7.34a6.8,6.8,0,0,0,1.06-3.63,5.661,5.661,0,0,0-5.66-5.66h-0.09Zm1.68,7.43a1.374,1.374,0,0,0-.44.97l-0.8,6.28h-0.89l-0.79-6.28a1.461,1.461,0,0,0-.44-0.97,3.05,3.05,0,0,1-.53-1.59,2.282,2.282,0,0,1,2.21-2.3,2.123,2.123,0,0,1,2.21,2.03v0.09a3.2,3.2,0,0,1-.53,1.77h0Z" transform="translate(-1287.81 -2760.44)"/>
</svg>
