<svg xmlns="http://www.w3.org/2000/svg" width="78.5" height="78.5" viewBox="0 0 78.5 78.5">
  <defs>
    <style>
      .cls-1 {
        fill: #b69375;
        fill-rule: evenodd;
      }
    </style>
  </defs>
  <path id="Фигура_19" data-name="Фигура 19" class="cls-1" d="M261.492,2834.5H217.008a1.311,1.311,0,0,1-1.308-1.31v-75.88a1.305,1.305,0,0,1,1.308-1.31h44.484a1.305,1.305,0,0,1,1.308,1.31v75.88A1.311,1.311,0,0,1,261.492,2834.5Zm-43.175-2.62h41.866v-73.26H218.317v73.26Zm37.941,2.62H222.242a1.312,1.312,0,0,1-1.309-1.31v-70.65a1.312,1.312,0,0,1,1.309-1.31h34.016a1.312,1.312,0,0,1,1.309,1.31v70.65A1.312,1.312,0,0,1,256.258,2834.5Zm-32.708-2.62h31.4v-68.03h-31.4v68.03Zm27.475-49.71h-23.55a1.311,1.311,0,0,1-1.308-1.31v-1.31a13.083,13.083,0,0,1,26.166,0v1.31A1.311,1.311,0,0,1,251.025,2782.17Zm-22.242-2.62h20.934A10.467,10.467,0,1,0,228.783,2779.55Zm7.85,26.17h-9.158a1.311,1.311,0,0,1-1.308-1.31v-18.32a1.311,1.311,0,0,1,1.308-1.31h9.158a1.312,1.312,0,0,1,1.309,1.31v18.32A1.312,1.312,0,0,1,236.633,2805.72Zm-7.85-2.62h6.542v-15.7h-6.542v15.7Zm22.242,2.62h-9.158a1.312,1.312,0,0,1-1.309-1.31v-18.32a1.312,1.312,0,0,1,1.309-1.31h9.158a1.311,1.311,0,0,1,1.308,1.31v18.32A1.311,1.311,0,0,1,251.025,2805.72Zm-7.85-2.62h6.542v-15.7h-6.542v15.7Zm-6.542,26.17h-9.158a1.311,1.311,0,0,1-1.308-1.31v-18.32a1.311,1.311,0,0,1,1.308-1.31h9.158a1.312,1.312,0,0,1,1.309,1.31v18.32A1.312,1.312,0,0,1,236.633,2829.27Zm-7.85-2.62h6.542v-15.7h-6.542v15.7Zm22.242,2.62h-9.158a1.312,1.312,0,0,1-1.309-1.31v-18.32a1.312,1.312,0,0,1,1.309-1.31h9.158a1.311,1.311,0,0,1,1.308,1.31v18.32A1.311,1.311,0,0,1,251.025,2829.27Zm-7.85-2.62h6.542v-15.7h-6.542v15.7Zm-3.925-44.48a1.311,1.311,0,0,1-1.308-1.31v-13.09a1.308,1.308,0,0,1,2.616,0v13.09A1.311,1.311,0,0,1,239.25,2782.17Zm0,0a1.291,1.291,0,0,1-.925-0.39,1.306,1.306,0,0,1,0-1.85l8.954-8.95a1.308,1.308,0,1,1,1.85,1.85l-8.954,8.95A1.291,1.291,0,0,1,239.25,2782.17Zm0,0a1.291,1.291,0,0,1-.925-0.39l-8.954-8.95a1.308,1.308,0,1,1,1.85-1.85l8.954,8.95a1.308,1.308,0,0,1,0,1.85A1.291,1.291,0,0,1,239.25,2782.17Zm-30.092,52.33h-7.85a1.31,1.31,0,0,1,0-2.62h7.85A1.31,1.31,0,0,1,209.158,2834.5Zm68.034,0h-15.7a1.31,1.31,0,0,1,0-2.62h15.7A1.31,1.31,0,0,1,277.192,2834.5Z" transform="translate(-200 -2756)"/>
</svg>
