<svg xmlns="http://www.w3.org/2000/svg" width="78.5" height="78.5" viewBox="0 0 78.5 78.5">
  <defs>
    <style>
      .cls-1 {
        fill: #b69375;
        fill-rule: evenodd;
      }
    </style>
  </defs>
  <path id="Фигура_20" data-name="Фигура 20" class="cls-1" d="M745.505,2834.5h44.486a1.311,1.311,0,0,0,1.308-1.31V2757.3a1.3,1.3,0,0,0-1.308-1.3H745.505a1.3,1.3,0,0,0-1.308,1.3v75.89A1.311,1.311,0,0,0,745.505,2834.5Zm43.177-2.62H746.814v-73.27h41.868v73.27Zm-37.943,2.62h34.018a1.311,1.311,0,0,0,1.308-1.31v-70.65a1.305,1.305,0,0,0-1.308-1.31H750.739a1.306,1.306,0,0,0-1.309,1.31v70.65A1.312,1.312,0,0,0,750.739,2834.5Zm32.71-2.62h-31.4v-68.03h31.4v68.03Zm-13.084-51.02h9.159a1.311,1.311,0,0,0,1.308-1.31v-11.78a1.311,1.311,0,0,0-1.308-1.31h-9.159a1.312,1.312,0,0,0-1.309,1.31v11.78A1.312,1.312,0,0,0,770.365,2780.86Zm7.85-2.62h-6.542v-9.16h6.542v9.16Zm-22.243,2.62h9.159a1.312,1.312,0,0,0,1.309-1.31v-11.78a1.312,1.312,0,0,0-1.309-1.31h-9.159a1.311,1.311,0,0,0-1.308,1.31v11.78A1.311,1.311,0,0,0,755.972,2780.86Zm7.851-2.62h-6.542v-9.16h6.542v9.16Zm6.542,18.32h9.159a1.311,1.311,0,0,0,1.308-1.31v-10.47a1.311,1.311,0,0,0-1.308-1.31h-9.159a1.312,1.312,0,0,0-1.309,1.31v10.47A1.312,1.312,0,0,0,770.365,2796.56Zm7.85-2.62h-6.542v-7.85h6.542v7.85Zm-22.243,2.62h9.159a1.312,1.312,0,0,0,1.309-1.31v-10.47a1.312,1.312,0,0,0-1.309-1.31h-9.159a1.311,1.311,0,0,0-1.308,1.31v10.47A1.311,1.311,0,0,0,755.972,2796.56Zm7.851-2.62h-6.542v-7.85h6.542v7.85Zm6.542,18.32h9.159a1.311,1.311,0,0,0,1.308-1.31v-10.47a1.311,1.311,0,0,0-1.308-1.31h-9.159a1.312,1.312,0,0,0-1.309,1.31v10.47A1.312,1.312,0,0,0,770.365,2812.26Zm7.85-2.62h-6.542v-7.85h6.542v7.85Zm-22.243,2.62h9.159a1.312,1.312,0,0,0,1.309-1.31v-10.47a1.312,1.312,0,0,0-1.309-1.31h-9.159a1.311,1.311,0,0,0-1.308,1.31v10.47A1.311,1.311,0,0,0,755.972,2812.26Zm7.851-2.62h-6.542v-7.85h6.542v7.85Zm6.542,19.63h9.159a1.311,1.311,0,0,0,1.308-1.31v-11.78a1.311,1.311,0,0,0-1.308-1.31h-9.159a1.312,1.312,0,0,0-1.309,1.31v11.78A1.312,1.312,0,0,0,770.365,2829.27Zm7.85-2.62h-6.542v-9.16h6.542v9.16Zm-22.243,2.62h9.159a1.312,1.312,0,0,0,1.309-1.31v-11.78a1.312,1.312,0,0,0-1.309-1.31h-9.159a1.311,1.311,0,0,0-1.308,1.31v11.78A1.311,1.311,0,0,0,755.972,2829.27Zm7.851-2.62h-6.542v-9.16h6.542v9.16Zm34.018,7.85h7.851a1.31,1.31,0,0,0,0-2.62h-7.851A1.31,1.31,0,0,0,797.841,2834.5Zm-68.037,0h15.7a1.31,1.31,0,0,0,0-2.62H729.8A1.31,1.31,0,0,0,729.8,2834.5Z" transform="translate(-728.5 -2756)"/>
</svg>
